<?xml version="1.0" standalone="no"?>
<!DOCTYPE svg PUBLIC "-//W3C//DTD SVG 20010904//EN"
 "http://www.w3.org/TR/2001/REC-SVG-20010904/DTD/svg10.dtd">
<svg version="1.0" xmlns="http://www.w3.org/2000/svg"
 width="300.000000pt" height="60.000000pt" viewBox="0 0 300.000000 60.000000"
 preserveAspectRatio="xMidYMid meet">

<g transform="translate(0.000000,60.000000) scale(0.100000,-0.100000)"
fill="#000000" stroke="none">
<path d="M220 463 c-48 -32 -71 -56 -59 -64 6 -4 8 -12 4 -19 -6 -9 -9 -9 -16
1 -6 10 -8 7 -6 -8 1 -15 13 -27 40 -39 21 -10 56 -35 78 -56 31 -30 39 -45
39 -73 l0 -35 63 1 c34 1 50 4 35 6 -30 5 -41 16 -55 58 -12 37 -7 55 16 55 9
0 25 6 35 13 16 12 12 16 -43 41 -33 15 -80 30 -103 34 -55 10 -64 38 -19 55
19 7 31 18 31 29 0 22 -9 23 -40 1z"/>
<path d="M585 438 c-6 -13 -31 -34 -56 -48 -41 -21 -50 -23 -74 -12 -26 12
-26 14 -11 30 32 36 -25 55 -93 31 -17 -6 -31 -14 -31 -18 0 -8 149 -71 168
-71 15 0 148 71 177 95 l20 17 -20 -7 c-11 -4 -29 -9 -40 -12 -16 -4 -17 -3
-5 6 13 9 12 11 -5 11 -12 0 -25 -10 -30 -22z"/>
<path d="M242 425 c-38 -17 -34 -35 8 -35 39 0 175 -63 184 -85 3 -10 4 -34 1
-54 l-6 -36 20 24 c45 50 22 93 -73 136 -40 18 -76 40 -79 49 -8 19 -13 19
-55 1z"/>
<path d="M915 426 c-41 -19 -54 -45 -67 -136 -11 -72 -10 -81 7 -100 14 -15
30 -20 72 -20 47 0 59 4 84 29 16 16 29 37 29 45 0 23 -52 20 -73 -4 -19 -23
-40 -26 -55 -7 -12 14 3 114 20 135 6 6 21 12 34 12 21 0 24 -5 24 -35 0 -31
3 -35 25 -35 44 0 62 72 26 104 -26 24 -89 30 -126 12z"/>
<path d="M2125 431 c-36 -15 -58 -50 -72 -114 -7 -34 -13 -72 -13 -84 0 -65
112 -88 170 -35 26 22 33 39 42 98 6 39 8 82 5 96 -10 40 -79 60 -132 39z m67
-105 c-3 -61 -21 -100 -48 -104 -35 -5 -43 17 -32 78 12 66 23 82 57 78 24 -3
26 -6 23 -52z"/>
<path d="M2625 425 c-42 -21 -54 -45 -67 -135 -11 -72 -10 -81 7 -100 14 -15
30 -20 69 -20 87 0 119 39 132 162 6 62 5 65 -21 86 -32 25 -77 28 -120 7z
m79 -60 c7 -19 -12 -115 -26 -132 -14 -17 -43 -16 -57 1 -13 15 2 110 20 133
15 18 55 17 63 -2z"/>
<path d="M498 418 c-21 -6 -38 -14 -38 -19 0 -14 38 -11 70 6 50 26 37 31 -32
13z"/>
<path d="M1120 428 c0 -2 -11 -60 -23 -130 l-24 -128 32 0 c30 0 32 3 41 48 9
45 10 47 47 50 20 2 37 0 37 -5 -1 -4 -5 -27 -9 -50 l-8 -43 32 0 32 0 16 98
c9 53 19 112 23 130 6 31 5 32 -24 32 -32 0 -35 -4 -47 -72 -6 -36 -8 -38 -42
-38 l-36 0 7 55 6 55 -30 0 c-16 0 -30 -1 -30 -2z"/>
<path d="M1380 428 c0 -2 -11 -60 -23 -130 l-24 -128 34 0 c18 0 33 3 33 8 0
4 9 59 20 122 11 63 20 118 20 123 0 6 -60 11 -60 5z"/>
<path d="M1500 428 c0 -2 -11 -60 -23 -130 l-24 -128 33 0 c32 0 32 0 44 70 6
39 14 70 16 70 2 0 13 -31 25 -70 20 -68 22 -70 53 -70 l33 0 16 98 c9 53 19
112 23 130 6 31 5 32 -24 32 -33 0 -36 -5 -47 -78 -8 -51 -16 -46 -40 26 -16
49 -18 52 -51 52 -19 0 -34 -1 -34 -2z"/>
<path d="M1760 428 c0 -2 -11 -60 -23 -130 l-24 -128 32 0 c32 0 32 1 45 73
13 71 13 72 26 42 7 -16 13 -36 14 -42 0 -7 11 -13 24 -13 18 0 32 11 51 43
l26 42 -6 -59 c-4 -33 -9 -65 -12 -73 -4 -9 4 -13 29 -13 l34 0 18 108 c9 59
20 117 23 130 5 20 1 22 -31 22 -32 0 -39 -5 -77 -62 l-42 -61 -19 61 c-18 60
-20 62 -53 62 -19 0 -35 -1 -35 -2z"/>
<path d="M2300 405 c0 -23 4 -25 45 -25 42 0 45 -2 41 -22 -3 -13 -10 -50 -16
-83 -6 -33 -13 -70 -16 -82 -4 -20 0 -23 31 -23 27 0 35 4 35 18 0 9 7 56 16
104 l16 87 46 3 c40 3 47 6 50 26 3 22 2 22 -122 22 l-126 0 0 -25z"/>
<path d="M649 409 c-11 -7 -9 -9 7 -9 11 0 26 -6 33 -12 10 -11 11 -10 6 4 -8
21 -28 29 -46 17z"/>
<path d="M480 311 c0 -11 5 -23 10 -26 6 -4 8 -11 5 -16 -9 -14 9 -11 31 7 18
15 18 15 -3 9 -23 -6 -32 8 -13 20 13 8 3 25 -16 25 -8 0 -14 -9 -14 -19z"/>
<path d="M157 302 c13 -8 33 -55 33 -78 0 -22 -17 -16 -24 9 l-7 22 -11 -23
c-9 -18 -8 -26 7 -42 22 -24 38 -25 60 -4 11 12 13 20 5 29 -13 16 13 40 36
31 27 -10 10 17 -26 42 -18 12 -45 22 -59 22 -16 0 -21 -3 -14 -8z"/>
<path d="M590 303 c27 -10 80 -66 80 -85 0 -24 -44 -68 -68 -68 -10 0 -29 11
-42 25 -27 28 -40 32 -40 10 0 -30 38 -55 84 -55 37 0 48 5 70 31 28 33 32 53
16 93 -10 28 -57 56 -92 55 -15 0 -18 -3 -8 -6z"/>
<path d="M103 256 c-30 -63 9 -126 78 -126 52 0 73 12 89 50 10 23 10 34 2 42
-7 7 -13 10 -14 7 -2 -2 -10 -17 -18 -33 -23 -44 -45 -54 -77 -36 -15 9 -32
28 -37 43 -8 22 -6 31 12 50 12 13 19 27 15 30 -15 16 -34 5 -50 -27z"/>
<path d="M528 264 c-44 -22 -58 -41 -42 -56 9 -10 124 33 124 46 0 12 -20 36
-29 36 -4 -1 -27 -12 -53 -26z"/>
<path d="M357 273 c-12 -11 -7 -33 8 -39 20 -8 45 13 38 32 -5 14 -34 19 -46
7z"/>
<path d="M598 223 c-31 -16 -36 -38 -12 -47 36 -14 77 24 59 54 -8 12 -13 12
-47 -7z"/>
<path d="M390 210 c-12 -8 -10 -10 8 -10 13 0 20 4 17 10 -7 12 -6 12 -25 0z"/>
<path d="M444 205 c-7 -17 4 -37 17 -30 12 8 12 45 -1 45 -6 0 -13 -7 -16 -15z"/>
</g>
</svg>
